<svg width="20" height="21" viewBox="0 0 20 21" fill="none" xmlns="http://www.w3.org/2000/svg">
<path d="M9.99961 0C12.761 -1.20706e-07 14.9996 2.23858 14.9996 5H17.9996C18.5242 5 18.9603 5.40542 18.9977 5.92871L19.9977 19.9287C20.0174 20.2056 19.9212 20.4785 19.732 20.6816C19.5429 20.8848 19.2772 21 18.9996 21H0.999615C0.722218 20.9999 0.457237 20.8846 0.268169 20.6816C0.0790027 20.4785 -0.0172334 20.2056 0.0025444 19.9287L1.00254 5.92871C1.03993 5.40556 1.47517 5.00021 1.99961 5H4.99961C4.99961 2.23871 7.23838 0.000219693 9.99961 0ZM2.07383 19H17.9264L17.069 7H14.9996V9C14.9996 9.55228 14.5519 10 13.9996 10C13.4475 9.99978 12.9996 9.55215 12.9996 9V7H6.99961V9C6.99961 9.55228 6.5519 10 5.99961 10C5.44752 9.99978 4.99961 9.55215 4.99961 9V7H2.93126L2.07383 19ZM10.1715 11.2744C10.687 10.746 11.4216 10.5058 12.1246 10.6338C13.2027 10.8099 13.9996 11.7706 13.9996 12.8916V12.9717C13.9996 13.6442 13.7183 14.285 13.2496 14.7334L10.4215 17.4395C10.3121 17.5514 10.1558 17.5996 9.99961 17.5996C9.8279 17.5995 9.6714 17.5515 9.56211 17.4395L6.73399 14.7334C6.26531 14.285 5.99966 13.6442 5.99961 12.9717V12.8916C5.99961 11.7708 6.7811 10.8101 7.85899 10.6338C8.56211 10.5057 9.29649 10.746 9.81211 11.2744L9.99961 11.4502L10.1715 11.2744ZM9.99961 2C8.34295 2.00022 6.99961 3.34328 6.99961 5H12.9996C12.9996 3.34315 11.6565 2 9.99961 2Z" fill="#464D59" style="fill:#464D59;fill:color(display-p3 0.2745 0.3020 0.3490);fill-opacity:1;"/>
</svg>
